<svg width="254" height="522" viewBox="0 0 254 522" fill="none" xmlns="http://www.w3.org/2000/svg">
<mask id="path-1-inside-1_10_226" fill="white">
<path d="M262.5 89C217.546 89 174.433 106.858 142.645 138.645C110.858 170.433 93 213.546 93 258.5C93 303.454 110.858 346.567 142.645 378.355C174.433 410.142 217.546 428 262.5 428L262.5 258.5L262.5 89Z"/>
</mask>
<path d="M262.5 89C217.546 89 174.433 106.858 142.645 138.645C110.858 170.433 93 213.546 93 258.5C93 303.454 110.858 346.567 142.645 378.355C174.433 410.142 217.546 428 262.5 428L262.5 258.5L262.5 89Z" stroke="#718CD8" stroke-width="12" mask="url(#path-1-inside-1_10_226)"/>
<mask id="path-2-inside-2_10_226" fill="white">
<path d="M261 0C191.779 -8.25458e-07 125.392 27.4981 76.4451 76.4451C27.4981 125.392 6.05154e-06 191.778 0 261C-6.05154e-06 330.221 27.4981 396.608 76.4451 445.555C125.392 494.502 191.778 522 261 522L261 261L261 0Z"/>
</mask>
<path d="M261 0C191.779 -8.25458e-07 125.392 27.4981 76.4451 76.4451C27.4981 125.392 6.05154e-06 191.778 0 261C-6.05154e-06 330.221 27.4981 396.608 76.4451 445.555C125.392 494.502 191.778 522 261 522L261 261L261 0Z" stroke="#718CD8" stroke-width="12" mask="url(#path-2-inside-2_10_226)"/>
<circle cx="255" cy="259" r="70" fill="#718CD8"/>
<path d="M281 257C281 273.016 268.016 286 252 286C235.984 286 223 273.016 223 257C223 240.984 235.984 228 252 228C268.016 228 281 240.984 281 257Z" fill="#202124" stroke="#202124" stroke-width="2"/>
</svg>
